<svg viewBox="0 0 100 100" xmlns="http://www.w3.org/2000/svg" fill-rule="evenodd" clip-rule="evenodd" stroke-linejoin="round" stroke-miterlimit="2" fill="#ccd4db">
  <path fill="none" d="M0 0h100v100H0z"/>
  <g fill-rule="nonzero">
    <path d="M50 0C36.4 0 34.7 0 29.4.3c-5.3.2-9 1-12.2 2.3-3.2 1.3-6 3-8.8 5.8a24.5 24.5 0 00-5.8 8.8C1.4 20.4.6 24.1.3 29.4.1 34.7 0 36.4 0 50c0 13.6 0 15.3.3 20.6.2 5.3 1 9 2.3 12.2 1.3 3.2 3 6 5.8 8.8 2.8 2.8 5.6 4.5 8.8 5.8 3.2 1.2 6.9 2 12.2 2.3 5.3.2 7 .3 20.6.3 13.6 0 15.3 0 20.6-.3 5.3-.2 9-1 12.2-2.3 3.2-1.3 6-3 8.8-5.8 2.8-2.8 4.5-5.6 5.8-8.8 1.2-3.2 2-6.9 2.3-12.2.2-5.3.3-7 .3-20.6 0-13.6 0-15.3-.3-20.6-.2-5.3-1-9-2.3-12.2-1.3-3.2-3-6-5.8-8.8a24.5 24.5 0 00-8.8-5.8C79.6 1.4 75.9.6 70.6.3 65.3.1 63.6 0 50 0zm0 9c13.4 0 15 0 20.2.3 4.9.2 7.5 1 9.3 1.7 2.3 1 4 2 5.7 3.8 1.8 1.7 2.9 3.4 3.8 5.7.7 1.8 1.5 4.4 1.7 9.3.2 5.3.3 6.8.3 20.2 0 13.4 0 15-.3 20.2-.2 4.9-1 7.5-1.7 9.3-1 2.3-2 4-3.8 5.7a15.5 15.5 0 01-5.7 3.8c-1.8.7-4.4 1.5-9.3 1.7-5.3.2-6.8.3-20.2.3-13.4 0-15 0-20.2-.3-4.9-.2-7.5-1-9.3-1.7-2.3-1-4-2-5.7-3.8a15.5 15.5 0 01-3.8-5.7c-.7-1.8-1.5-4.4-1.7-9.3A347 347 0 019 50c0-13.4 0-15 .3-20.2.2-4.9 1-7.5 1.7-9.3 1-2.3 2-4 3.8-5.7 1.7-1.8 3.4-2.9 5.7-3.8 1.8-.7 4.4-1.5 9.3-1.7C35.1 9.1 36.6 9 50 9z"/>
    <path d="M50 66.7a16.7 16.7 0 110-33.4 16.7 16.7 0 010 33.4zm0-42.4a25.7 25.7 0 100 51.4 25.7 25.7 0 000-51.4zM82.7 23.3a6 6 0 11-12 0 6 6 0 0112 0z"/>
  </g>
</svg>
